<?xml version="1.0" encoding="UTF-8"?>
<svg xmlns="http://www.w3.org/2000/svg" width="500" height="250">
<title>Ferry</title>

 <path transform="translate(0,-115)" fill="#000000" d="
 M 11.3,274.7 H 98.7 L 108.7,254.6 H 459.6 L 470.1,274.7 H 488.7 V 345.2 A 100,100 0 0 1 369.4,345.2 A 100,100 0 0 1 250.1,345.2 A 100,100 0 0 1 130.8,345.2 A 100,100 0 0 1 68.3,365.3 Z
 M 227,113.4 H 236.9 L 230.4,134 H 246.8 V 148.1 H 225.9 L 192.3,254.6 H 147.9 Z
 M 137.3,196.3 H 210.2 L 227,214.3 H 348.6 L 376.7,164.2 H 416.4 V 214.3 H 438.6 L 449.1,234.5 H 118.5 Z
 " />
</svg>