<?xml version="1.0" encoding="UTF-8"?>
<svg xmlns="http://www.w3.org/2000/svg" width="500" height="500">
 <title>TRAM</title>
 <g transform="matrix(.96441 0 0 1.03715 88.3.031)" fill-rule="evenodd">
  <path d="m161.07 47.691h12.08v-40.19h-12.08v40.19"/><path d="m95 0c-6.732.046-14.803 2.207-17.565 9.07-1.271 2.79-1.97 7.186 1.507 8.678 3.141 1.488 6.431-.756 7.743-3.629 1.937-3.964 6.413-5.819 10.661-5.35 47.45.043 94.91-.087 142.36.065 4.17.056 7.123 3.343 9.02 6.715 1.851 3.728 8.363 3.428 9.113-.917.54-6.441-4.642-12.203-10.769-13.544-7.433-1.937-15.21-.759-22.797-1.085-43.09 0-86.18 0-129.26 0"/>
  <path d="m89.03 294.97c-.26 2.674 1.617 5.411 4.451 5.454 2.777.472 6.715-.186 7.288-3.484.508-4.658.076-9.404.213-14.1-.061-34.849.014-69.7-.132-104.55-.009-3.034-3.057-4.98-5.885-4.709-2.663-.275-5.604 1.331-5.876 4.188-.279 8.162-.031 16.356-.108 24.53.016 30.889.032 61.778.048 92.67"/>
  <path d="m94.39 237.55c-4.554 4.142-.162 10.04 3.202 13.265 21.633 26.786 43.06 53.742 64.85 80.4 4.388 4.192 12.454-1.428 9.483-6.991-2.389-4.51-6.377-7.934-9.292-12.11-20.04-24.839-39.932-49.805-60.12-74.53-2.212-1.969-5.919-2.079-8.121-.033"/>
  <path d="m55.86 45.31c-22.6-.574-42.85 19.715-42.33 42.3-.23 3.744-.569 12.211-.84 17.763-4.151 92.96-8.765 185.91-12.628 278.86.592 22.979 22.494 42.08 45.3 40.13 83.995-.161 168.01.322 251.99-.241 23.08-1.765 41.15-24.899 37.731-47.716-4.422-96.45-8.843-192.9-13.265-289.35.036-1.979-.572-8.457-1.898-12.02-5.603-19.2-25.801-31.803-45.49-29.735-72.853 0-145.71 0-218.56 0m4.067 304.04c-15.208-.135-15.499 26.884-.4 27.24 8.584-1.133 20.467 3.516 26.19-5.218 5.712-8.565.292-23.863-11.437-22.02-4.785 0-9.569 0-14.354 0zm199.12 0c-12.427.595-16.12 19.21-5.694 25.432 7.229 3.709 16.02 1.208 23.862 1.656 12.308-2.696 13.433-21.933 1.747-26.395-6.392-1.565-13.363-.27-19.915-.693m-198.91-238.49c.088-7.965 10.112-5.05 15.182-5.514 65.48.141 131-.282 196.45.211 6.178 3.02 2.641 11.495 3.949 16.911 2.364 63.3 5.434 126.64 7.32 189.91-3.229 6.54-12.276 2.225-17.965 3.466-69.8-.141-139.66.282-209.42-.211-6.614-3.142-2.026-12.06-2.975-17.687 2.456-62.36 4.978-124.72 7.463-187.09"/>
  <path d="m51.732 397.47c0 11.939 0 23.878 0 35.817-11.911 11.367-23.894 22.664-35.732 34.1-3.462 3.675-2.488 10.14 1.722 12.818 4.087 3.01 10.269 2.18 13.557-1.652 12.493-11.939 25.08-23.789 37.513-35.785 2.247-2.228 2.48-5.513 2.289-8.49-.04-12.765.08-25.537-.059-38.3-.704-5.67-7.214-9.179-12.476-7.462-3.938 1.045-6.984 4.812-6.81 8.949"/>
  <path d="m264.26 436.96c-.092 3.402 2.265 6.101 4.717 8.154 12.217 11.589 24.333 23.294 36.614 34.81 4.555 3.737 12.367 2.338 14.954-3.076 1.942-3.605.677-8.288-2.489-10.771-11.477-10.938-22.954-21.876-34.445-32.799-.04-12.36.08-24.725-.06-37.08-.497-5.33-6.219-8.955-11.31-7.957-4.64.63-8.441 5.05-7.974 9.786 0 12.977 0 25.955 0 38.932"/>
 </g>
</svg>